<svg width="32" height="32" viewBox="0 0 32 32" fill="none" xmlns="http://www.w3.org/2000/svg">
<path d="M16 30.9986C16.2992 30.9986 16.5984 30.9413 16.884 30.824L27.5463 26.4758C28.4303 26.1155 29 25.2667 29 24.3141C29 18.4702 29 12.6263 29 6.78246C29 6.06323 28.6776 5.39585 28.1174 4.95095C24.9162 2.40295 20.6098 0.999999 15.9945 0.999999C11.3793 0.999998 7.08513 2.40023 3.88261 4.9414C3.32244 5.38494 3 6.05231 3 6.77153C3 8.68409 3 19.7571 3 24.3154C3 25.268 3.56973 26.1156 4.45234 26.4772L15.116 30.8253C15.4016 30.9413 15.7008 31 16 31L16 30.9986Z" fill="#2929EA" />
<path d="M15.8475 25.3699C15.6542 25.3699 15.4609 25.3323 15.2771 25.2572L8.39858 22.4487C7.82827 22.2158 7.46081 21.668 7.46081 21.0526V16.2313C7.46081 15.9929 7.70259 15.8303 7.92321 15.9205L9.67717 16.6376C9.80353 16.6896 9.88549 16.8118 9.88549 16.9484V20.4365L15.8475 22.8708L21.8094 20.4365V18.8834L8.3979 13.392C7.82895 13.1598 7.46149 12.6113 7.46149 11.9966V9.72834C7.46149 9.2639 7.66913 8.83292 8.03112 8.54606C10.0952 6.90138 12.8736 5.99503 15.8509 5.99503C18.8281 5.99503 21.5984 6.89933 23.6645 8.54059C24.0258 8.82746 24.2334 9.25843 24.2334 9.72288V14.0306C24.2334 14.2683 23.9923 14.4308 23.7724 14.3414L22.0184 13.6317C21.8921 13.5805 21.8087 13.4576 21.8087 13.321V10.1791C20.2201 9.05695 18.0761 8.4197 15.8509 8.4197C13.6256 8.4197 11.4742 9.05831 9.88549 10.1846V11.3819L23.297 16.8733C23.8666 17.1076 24.2334 17.6546 24.2334 18.2687V21.0533C24.2334 21.668 23.8653 22.2158 23.2963 22.4487L16.4171 25.2572C16.2334 25.3323 16.0401 25.3699 15.8468 25.3699H15.8475ZM9.54125 10.4428C9.54125 10.4428 9.53988 10.4441 9.5392 10.4441C9.5392 10.4441 9.54057 10.4428 9.54125 10.4428Z" fill="#FBFBFB" />
</svg>
